<mxfile host="app.diagrams.net" agent="Mozilla/5.0 (Windows NT 10.0; Win64; x64) AppleWebKit/537.36 (KHTML, like Gecko) Chrome/138.0.0.0 Safari/537.36 OPR/122.0.0.0" version="28.2.7">
  <diagram name="Page-1" id="c9YGcoMtPTihGBlTxYtm">
    <mxGraphModel dx="988" dy="562" grid="1" gridSize="10" guides="1" tooltips="1" connect="1" arrows="1" fold="1" page="1" pageScale="1" pageWidth="827" pageHeight="1169" math="0" shadow="0">
      <root>
        <mxCell id="0" />
        <mxCell id="1" parent="0" />
        <mxCell id="5m9qQ8ZT4hGIcBJNVfnZ-6" style="edgeStyle=orthogonalEdgeStyle;rounded=0;orthogonalLoop=1;jettySize=auto;html=1;exitX=1;exitY=0.3333333333333333;exitDx=0;exitDy=0;exitPerimeter=0;entryX=0;entryY=0.5;entryDx=0;entryDy=0;" edge="1" parent="1" source="5m9qQ8ZT4hGIcBJNVfnZ-1" target="5m9qQ8ZT4hGIcBJNVfnZ-5">
          <mxGeometry relative="1" as="geometry" />
        </mxCell>
        <mxCell id="5m9qQ8ZT4hGIcBJNVfnZ-1" value="internaute" style="shape=umlActor;verticalLabelPosition=bottom;verticalAlign=top;html=1;outlineConnect=0;" vertex="1" parent="1">
          <mxGeometry x="30" y="120" width="30" height="60" as="geometry" />
        </mxCell>
        <mxCell id="5m9qQ8ZT4hGIcBJNVfnZ-21" style="edgeStyle=orthogonalEdgeStyle;rounded=0;orthogonalLoop=1;jettySize=auto;html=1;" edge="1" parent="1" source="5m9qQ8ZT4hGIcBJNVfnZ-2" target="5m9qQ8ZT4hGIcBJNVfnZ-11">
          <mxGeometry relative="1" as="geometry" />
        </mxCell>
        <mxCell id="5m9qQ8ZT4hGIcBJNVfnZ-22" style="edgeStyle=orthogonalEdgeStyle;rounded=0;orthogonalLoop=1;jettySize=auto;html=1;" edge="1" parent="1" source="5m9qQ8ZT4hGIcBJNVfnZ-2" target="5m9qQ8ZT4hGIcBJNVfnZ-12">
          <mxGeometry relative="1" as="geometry" />
        </mxCell>
        <mxCell id="5m9qQ8ZT4hGIcBJNVfnZ-23" style="edgeStyle=orthogonalEdgeStyle;rounded=0;orthogonalLoop=1;jettySize=auto;html=1;entryX=0;entryY=0.5;entryDx=0;entryDy=0;" edge="1" parent="1" source="5m9qQ8ZT4hGIcBJNVfnZ-2" target="5m9qQ8ZT4hGIcBJNVfnZ-7">
          <mxGeometry relative="1" as="geometry" />
        </mxCell>
        <mxCell id="5m9qQ8ZT4hGIcBJNVfnZ-24" style="edgeStyle=orthogonalEdgeStyle;rounded=0;orthogonalLoop=1;jettySize=auto;html=1;entryX=0;entryY=0.5;entryDx=0;entryDy=0;" edge="1" parent="1" source="5m9qQ8ZT4hGIcBJNVfnZ-2" target="5m9qQ8ZT4hGIcBJNVfnZ-18">
          <mxGeometry relative="1" as="geometry" />
        </mxCell>
        <mxCell id="5m9qQ8ZT4hGIcBJNVfnZ-25" style="edgeStyle=orthogonalEdgeStyle;rounded=0;orthogonalLoop=1;jettySize=auto;html=1;entryX=0;entryY=0.5;entryDx=0;entryDy=0;" edge="1" parent="1" source="5m9qQ8ZT4hGIcBJNVfnZ-2" target="5m9qQ8ZT4hGIcBJNVfnZ-20">
          <mxGeometry relative="1" as="geometry" />
        </mxCell>
        <mxCell id="5m9qQ8ZT4hGIcBJNVfnZ-2" value="client" style="shape=umlActor;verticalLabelPosition=bottom;verticalAlign=top;html=1;outlineConnect=0;" vertex="1" parent="1">
          <mxGeometry x="30" y="340" width="30" height="60" as="geometry" />
        </mxCell>
        <mxCell id="5m9qQ8ZT4hGIcBJNVfnZ-3" value="administrateur" style="shape=umlActor;verticalLabelPosition=bottom;verticalAlign=top;html=1;outlineConnect=0;" vertex="1" parent="1">
          <mxGeometry x="720" y="420" width="30" height="60" as="geometry" />
        </mxCell>
        <mxCell id="5m9qQ8ZT4hGIcBJNVfnZ-4" value="destinataire" style="shape=umlActor;verticalLabelPosition=bottom;verticalAlign=top;html=1;outlineConnect=0;" vertex="1" parent="1">
          <mxGeometry x="710" y="140" width="30" height="60" as="geometry" />
        </mxCell>
        <mxCell id="5m9qQ8ZT4hGIcBJNVfnZ-5" value="gérer un compte" style="ellipse;whiteSpace=wrap;html=1;" vertex="1" parent="1">
          <mxGeometry x="100" y="50" width="220" height="40" as="geometry" />
        </mxCell>
        <mxCell id="5m9qQ8ZT4hGIcBJNVfnZ-26" value="x" style="edgeStyle=orthogonalEdgeStyle;rounded=0;orthogonalLoop=1;jettySize=auto;html=1;entryX=1;entryY=0.5;entryDx=0;entryDy=0;dashed=1;" edge="1" parent="1" source="5m9qQ8ZT4hGIcBJNVfnZ-7" target="5m9qQ8ZT4hGIcBJNVfnZ-11">
          <mxGeometry relative="1" as="geometry">
            <Array as="points">
              <mxPoint x="390" y="410" />
              <mxPoint x="390" y="330" />
            </Array>
          </mxGeometry>
        </mxCell>
        <mxCell id="5m9qQ8ZT4hGIcBJNVfnZ-7" value="ajouter des photos" style="ellipse;whiteSpace=wrap;html=1;" vertex="1" parent="1">
          <mxGeometry x="150" y="390" width="220" height="40" as="geometry" />
        </mxCell>
        <mxCell id="5m9qQ8ZT4hGIcBJNVfnZ-16" style="edgeStyle=orthogonalEdgeStyle;rounded=0;orthogonalLoop=1;jettySize=auto;html=1;exitX=0;exitY=0.5;exitDx=0;exitDy=0;entryX=1;entryY=0.5;entryDx=0;entryDy=0;" edge="1" parent="1" source="5m9qQ8ZT4hGIcBJNVfnZ-8" target="5m9qQ8ZT4hGIcBJNVfnZ-5">
          <mxGeometry relative="1" as="geometry">
            <mxPoint x="320" y="120" as="targetPoint" />
            <Array as="points">
              <mxPoint x="350" y="80" />
              <mxPoint x="340" y="80" />
              <mxPoint x="340" y="70" />
            </Array>
          </mxGeometry>
        </mxCell>
        <mxCell id="5m9qQ8ZT4hGIcBJNVfnZ-8" value="supprimer un compte" style="ellipse;whiteSpace=wrap;html=1;" vertex="1" parent="1">
          <mxGeometry x="350" y="100" width="220" height="40" as="geometry" />
        </mxCell>
        <mxCell id="5m9qQ8ZT4hGIcBJNVfnZ-15" style="edgeStyle=orthogonalEdgeStyle;rounded=0;orthogonalLoop=1;jettySize=auto;html=1;exitX=0;exitY=0.5;exitDx=0;exitDy=0;" edge="1" parent="1" source="5m9qQ8ZT4hGIcBJNVfnZ-9">
          <mxGeometry relative="1" as="geometry">
            <mxPoint x="320" y="70" as="targetPoint" />
            <Array as="points">
              <mxPoint x="340" y="80" />
              <mxPoint x="340" y="70" />
            </Array>
          </mxGeometry>
        </mxCell>
        <mxCell id="5m9qQ8ZT4hGIcBJNVfnZ-9" value="modifier un compte" style="ellipse;whiteSpace=wrap;html=1;" vertex="1" parent="1">
          <mxGeometry x="350" y="60" width="220" height="40" as="geometry" />
        </mxCell>
        <mxCell id="5m9qQ8ZT4hGIcBJNVfnZ-14" style="edgeStyle=orthogonalEdgeStyle;rounded=0;orthogonalLoop=1;jettySize=auto;html=1;exitX=0;exitY=0.5;exitDx=0;exitDy=0;entryX=1;entryY=0.5;entryDx=0;entryDy=0;" edge="1" parent="1" source="5m9qQ8ZT4hGIcBJNVfnZ-10" target="5m9qQ8ZT4hGIcBJNVfnZ-5">
          <mxGeometry relative="1" as="geometry" />
        </mxCell>
        <mxCell id="5m9qQ8ZT4hGIcBJNVfnZ-10" value="créer un compte" style="ellipse;whiteSpace=wrap;html=1;" vertex="1" parent="1">
          <mxGeometry x="350" y="20" width="220" height="40" as="geometry" />
        </mxCell>
        <mxCell id="5m9qQ8ZT4hGIcBJNVfnZ-11" value="créer des cartes" style="ellipse;whiteSpace=wrap;html=1;" vertex="1" parent="1">
          <mxGeometry x="150" y="310" width="220" height="40" as="geometry" />
        </mxCell>
        <mxCell id="5m9qQ8ZT4hGIcBJNVfnZ-12" value="connecter/déconnecter" style="ellipse;whiteSpace=wrap;html=1;" vertex="1" parent="1">
          <mxGeometry x="150" y="350" width="220" height="40" as="geometry" />
        </mxCell>
        <mxCell id="5m9qQ8ZT4hGIcBJNVfnZ-17" style="edgeStyle=orthogonalEdgeStyle;rounded=0;orthogonalLoop=1;jettySize=auto;html=1;entryX=0;entryY=0.3333333333333333;entryDx=0;entryDy=0;entryPerimeter=0;" edge="1" parent="1" source="5m9qQ8ZT4hGIcBJNVfnZ-10" target="5m9qQ8ZT4hGIcBJNVfnZ-3">
          <mxGeometry relative="1" as="geometry" />
        </mxCell>
        <mxCell id="5m9qQ8ZT4hGIcBJNVfnZ-18" value="expédie de cartes" style="ellipse;whiteSpace=wrap;html=1;" vertex="1" parent="1">
          <mxGeometry x="150" y="430" width="220" height="40" as="geometry" />
        </mxCell>
        <mxCell id="5m9qQ8ZT4hGIcBJNVfnZ-19" style="edgeStyle=orthogonalEdgeStyle;rounded=0;orthogonalLoop=1;jettySize=auto;html=1;entryX=0;entryY=0.3333333333333333;entryDx=0;entryDy=0;entryPerimeter=0;" edge="1" parent="1" source="5m9qQ8ZT4hGIcBJNVfnZ-18" target="5m9qQ8ZT4hGIcBJNVfnZ-4">
          <mxGeometry relative="1" as="geometry" />
        </mxCell>
        <mxCell id="5m9qQ8ZT4hGIcBJNVfnZ-27" value="x" style="edgeStyle=orthogonalEdgeStyle;rounded=0;orthogonalLoop=1;jettySize=auto;html=1;entryX=1;entryY=0.5;entryDx=0;entryDy=0;dashed=1;" edge="1" parent="1" source="5m9qQ8ZT4hGIcBJNVfnZ-20" target="5m9qQ8ZT4hGIcBJNVfnZ-11">
          <mxGeometry relative="1" as="geometry">
            <Array as="points">
              <mxPoint x="390" y="490" />
              <mxPoint x="390" y="330" />
            </Array>
          </mxGeometry>
        </mxCell>
        <mxCell id="5m9qQ8ZT4hGIcBJNVfnZ-20" value="ajouter une mélodie" style="ellipse;whiteSpace=wrap;html=1;" vertex="1" parent="1">
          <mxGeometry x="150" y="470" width="220" height="40" as="geometry" />
        </mxCell>
      </root>
    </mxGraphModel>
  </diagram>
</mxfile>
